<!DOCTYPE svg PUBLIC "-//W3C//DTD SVG 1.1//EN" "http://www.w3.org/Graphics/SVG/1.1/DTD/svg11.dtd">
<!-- Uploaded to: SVG Repo, www.svgrepo.com, Transformed by: SVG Repo Mixer Tools -->
<svg version="1.1" id="Layer_1" xmlns="http://www.w3.org/2000/svg" xmlns:xlink="http://www.w3.org/1999/xlink" viewBox="0 0 512 512" xml:space="preserve" width="800px" height="800px" fill="#07003d" stroke="#07003d">
<g id="SVGRepo_bgCarrier" stroke-width="0"/>
<g id="SVGRepo_tracerCarrier" stroke-linecap="round" stroke-linejoin="round"/>
<g id="SVGRepo_iconCarrier"> <path d="M0,355.2v-324c0.104-5.704,4.696-10.296,10.4-10.4h491.2c5.704,0.104,10.296,4.696,10.4,10.4v324H0z"/> <g> <path style="fill:#E2E2E2;" d="M512,355.2v41.6c-0.104,5.704-4.696,10.296-10.4,10.4H10.4c-5.704-0.104-10.296-4.696-10.4-10.4 v-41.6H512z"/> <rect x="146.4" y="480.8" style="fill:#E2E2E2;" width="219.2" height="10.4"/> </g> <polygon style="fill:#CECECE;" points="328.8,480.8 183.2,480.8 193.6,407.2 318.4,407.2 "/> <rect x="20.8" y="41.6" style="fill:#010033;" width="470.4" height="292.8"/> <polygon style="fill:#B7B7B7;" points="318.4,407.2 193.6,407.2 187.792,448.28 320.272,420.424 "/> <rect x="402.8" y="252.352" style="fill:#6B6B6B;" width="34.576" height="9.592"/> <rect x="210.8" y="252.352" style="fill:#00d6e6;" width="51.856" height="9.592"/> <rect x="89.792" y="252.352" style="fill:#C1C1C1;" width="69.152" height="9.592"/> <rect x="89.792" y="183.2" style="fill:#00d6e6;" width="69.152" height="9.592"/> <rect x="193.52" y="183.2" style="fill:#6B6B6B;" width="69.152" height="9.592"/> <rect x="279.96" y="183.2" style="fill:#C1C1C1;" width="69.152" height="9.592"/> <g> <rect x="383.688" y="183.2" style="fill:#00d6e6;" width="69.144" height="9.592"/> <rect x="331.824" y="217.76" style="fill:#00d6e6;" width="34.568" height="9.592"/> </g> <rect x="245.392" y="217.76" style="fill:#C1C1C1;" width="34.568" height="9.592"/> <rect x="109.392" y="217.76" style="fill:#00d6e6;" width="65" height="9.592"/> <rect x="89.792" y="286.92" style="fill:#6B6B6B;" width="172.864" height="9.592"/> <g> <rect x="314.48" y="286.92" style="fill:#00d6e6;" width="69.152" height="9.592"/> <rect x="331.824" y="148.632" style="fill:#00d6e6;" width="34.568" height="9.592"/> <rect x="245.392" y="148.632" style="fill:#00d6e6;" width="34.568" height="9.592"/> <rect x="89.792" y="148.632" style="fill:#00d6e6;" width="103.72" height="9.592"/> </g> <rect x="279.96" y="79.488" style="fill:#6B6B6B;" width="86.44" height="9.592"/> <g> <rect x="210.8" y="79.488" style="fill:#00d6e6;" width="34.584" height="9.592"/> <rect x="418.24" y="79.488" style="fill:#00d6e6;" width="34.568" height="9.592"/> </g> <rect x="72.48" y="79.488" style="fill:#C1C1C1;" width="103.72" height="9.592"/> <rect x="297.28" y="114.056" style="fill:#00d6e6;" width="69.152" height="9.592"/> <rect x="228.088" y="114.056" style="fill:#C1C1C1;" width="34.568" height="9.592"/> <rect x="55.232" y="114.056" style="fill:#6B6B6B;" width="103.712" height="9.592"/> </g>
</svg>