<?xml version="1.0" standalone="no"?>
<!DOCTYPE svg PUBLIC "-//W3C//DTD SVG 20010904//EN"
 "http://www.w3.org/TR/2001/REC-SVG-20010904/DTD/svg10.dtd">
<svg version="1.0" xmlns="http://www.w3.org/2000/svg"
          width="100px" viewBox="0 0 1590.000000 1380.000000"
          preserveAspectRatio="xMidYMid meet">
         
         <g transform="translate(0.000000,1380.000000) scale(0.100000,-0.100000)"
         fill="white" stroke="none">
         <path d="M6230 12807 l0 -994 -1187 -6 c-652 -4 -1605 -7 -2117 -7 l-931 0
         160 -160 160 -160 2117 0 2118 0 2 998 3 997 1423 3 1422 2 0 -1000 0 -1000
         2123 0 2122 0 160 160 160 160 -930 0 c-512 0 -1467 3 -2122 7 l-1193 6 0 994
         0 993 -1745 0 -1745 0 0 -993z"/>
         <path d="M7898 13066 c-10 -7 -22 -25 -28 -40 -6 -18 -10 -215 -10 -559 0
         -513 1 -533 20 -564 l20 -33 89 0 c143 0 131 -56 131 607 l0 554 -25 24 c-21
         22 -32 25 -102 25 -48 -1 -85 -6 -95 -14z"/>
         <path d="M7505 12278 c-45 -26 -44 -16 -45 -596 l0 -553 25 -24 c23 -24 29
         -25 155 -25 l130 0 0 165 0 165 -35 0 -35 0 0 270 0 270 35 0 35 0 0 170 0
         170 -122 0 c-74 0 -131 -5 -143 -12z"/>
         <path d="M8220 12120 l0 -170 40 0 40 0 0 -270 0 -270 -40 0 -40 0 0 -165 0
         -165 131 0 131 0 29 29 29 30 -2 551 -3 552 -28 24 c-27 23 -35 24 -158 24
         l-129 0 0 -170z"/>
         <path d="M7884 11739 c-18 -20 -19 -44 -19 -581 l0 -560 29 -25 c27 -23 36
         -25 109 -21 128 5 117 -50 117 607 0 488 -2 559 -16 579 -14 20 -23 22 -108
         22 -82 0 -95 -3 -112 -21z"/>
         <path d="M4354 11005 c-11 -28 121 -259 195 -339 35 -38 112 -72 234 -101 55
         -14 102 -26 104 -29 12 -11 -12 -48 -62 -95 -30 -29 -55 -54 -55 -57 0 -3 45
         -83 100 -179 55 -96 100 -177 100 -180 0 -4 -12 -5 -26 -3 -22 3 -42 30 -135
         193 l-109 189 46 47 46 47 -67 11 c-36 7 -88 20 -115 31 l-48 19 -30 -57
         c-123 -231 -145 -554 -56 -847 38 -126 41 -181 13 -236 -36 -69 -37 -182 -5
         -353 50 -264 35 -350 -81 -475 l-59 -65 -37 30 c-20 16 -37 32 -37 35 0 3 32
         34 70 69 103 91 106 97 90 254 l-13 130 -30 -34 c-16 -19 -54 -87 -84 -150
         -151 -318 -195 -390 -265 -426 -40 -21 -104 -10 -170 30 -204 122 -192 485 36
         1079 59 152 19 343 -108 521 -183 256 -452 317 -661 149 -110 -89 -197 -227
         -310 -488 -134 -311 -251 -495 -314 -495 -46 0 -70 68 -81 226 -4 63 -10 117
         -13 120 -8 8 -64 -78 -107 -164 -87 -174 -137 -334 -147 -467 -7 -97 7 -153
         48 -200 40 -45 86 -59 174 -52 188 14 351 140 579 446 148 198 167 221 199
         238 39 19 63 9 91 -40 38 -65 46 -140 46 -406 0 -341 -21 -425 -143 -576 -31
         -38 -57 -73 -57 -77 0 -11 67 -25 180 -38 58 -6 150 -20 204 -31 55 -10 100
         -18 101 -16 1 1 7 16 14 34 15 36 92 113 138 137 27 13 33 14 43 1 10 -11 2
         -24 -42 -67 -70 -69 -84 -116 -103 -359 -24 -307 -38 -361 -108 -413 -24 -18
         -43 -21 -120 -21 -51 0 -111 4 -134 8 -37 7 -43 6 -43 -8 0 -9 -12 -28 -27
         -42 -36 -34 -191 -107 -268 -127 -86 -22 -98 -40 -92 -141 2 -44 11 -125 20
         -180 9 -55 20 -153 26 -218 12 -145 37 -206 106 -263 85 -71 96 -125 40 -198
         l-35 -46 35 0 c104 0 180 -94 147 -180 -9 -25 -8 -25 60 -37 95 -16 154 -53
         187 -118 22 -43 26 -62 26 -142 l0 -93 240 0 c132 0 304 3 383 7 164 7 160 4
         112 101 -38 76 -122 155 -216 204 -38 20 -134 59 -214 88 -181 64 -213 82
         -250 139 -56 89 -109 310 -126 532 l-6 86 51 22 51 22 -55 53 c-48 47 -55 59
         -55 93 0 45 19 79 87 153 l51 55 -19 -55 c-10 -30 -18 -79 -19 -109 0 -95 14
         -121 117 -215 135 -124 159 -120 235 42 86 185 116 231 172 259 69 35 159 124
         211 208 122 197 186 521 164 834 -4 69 -7 126 -6 128 2 1 19 -8 39 -22 26 -18
         37 -34 43 -61 13 -71 7 -385 -9 -486 -49 -302 -179 -512 -403 -652 -24 -14
         -59 -50 -78 -79 l-36 -54 15 -159 c19 -207 36 -255 116 -326 33 -28 64 -64 70
         -79 16 -38 4 -84 -32 -124 l-29 -34 38 -6 c68 -12 102 -26 123 -52 25 -33 34
         -81 22 -125 l-10 -35 69 -5 c95 -7 153 -43 192 -119 24 -48 28 -66 28 -142 l0
         -87 385 0 384 0 -6 28 c-13 56 -69 144 -120 191 -66 60 -191 125 -357 185 -70
         25 -145 55 -166 65 -103 53 -175 272 -205 624 l-5 57 47 24 46 23 -31 16 c-63
         33 -142 157 -157 247 -7 45 2 59 46 66 l35 6 1 -54 c1 -95 34 -180 84 -212 23
         -15 110 -33 205 -43 46 -5 54 -3 79 22 26 26 26 29 20 108 -3 45 -9 132 -12
         192 l-6 110 46 75 c109 176 146 365 98 491 -29 73 -116 131 -224 147 l-53 8
         70 13 c184 35 318 99 429 202 80 74 127 140 156 216 l18 48 -131 0 c-117 0
         -138 3 -182 23 -60 28 -89 53 -126 111 -24 37 -29 55 -28 105 1 110 10 111 63
         9 75 -145 145 -192 266 -179 30 3 80 8 110 11 108 12 153 -52 130 -183 -6 -35
         -20 -88 -31 -116 -10 -28 -19 -52 -19 -53 0 -2 39 -3 88 -3 137 0 197 -42 195
         -139 l-1 -48 84 -6 c139 -8 200 -51 193 -134 l-4 -40 53 25 c77 35 182 29 269
         -15 94 -48 247 -158 293 -210 51 -58 103 -162 126 -251 l18 -70 35 5 c53 8 94
         34 113 73 34 67 17 196 -43 328 -16 36 -28 66 -27 67 2 1 13 7 25 14 47 24
         178 -28 333 -134 44 -30 83 -55 85 -55 10 0 4 149 -6 181 -20 58 -59 100 -118
         127 -49 23 -69 26 -160 26 l-104 0 39 34 c52 46 150 91 213 99 57 7 62 17 37
         77 -20 48 -51 66 -113 66 -62 0 -137 -26 -219 -77 -122 -76 -163 -93 -223 -93
         -83 0 -164 42 -254 132 -116 116 -210 258 -472 708 -246 422 -303 505 -448
         642 l-92 87 0 83 c0 91 38 229 79 291 36 54 111 76 289 88 84 5 162 12 175 14
         35 8 102 74 102 101 l0 23 -56 -26 c-52 -23 -64 -25 -158 -21 -71 4 -117 12
         -155 27 -61 25 -165 30 -203 11 l-23 -13 24 26 c53 58 154 83 224 54 55 -23
         103 -28 171 -17 155 25 247 87 281 191 10 30 28 75 41 101 l24 47 -29 16 c-37
         19 -160 40 -321 56 l-126 12 -60 -41 c-33 -23 -80 -50 -105 -60 -38 -17 -47
         -26 -57 -61 -7 -22 -18 -41 -25 -41 -28 0 -92 85 -111 146 -6 20 -2 21 86 27
         91 5 189 30 158 40 -132 43 -285 87 -320 92 -25 3 -144 7 -265 9 -280 5 -346
         15 -450 71 -103 55 -123 61 -131 40z"/>
         <path d="M11540 11013 c-8 -3 -49 -25 -90 -49 -98 -55 -163 -65 -450 -70 -124
         -2 -245 -6 -270 -9 -25 -4 -110 -27 -189 -53 l-145 -47 45 -13 c24 -8 83 -17
         132 -19 57 -4 87 -9 87 -17 0 -24 -53 -117 -77 -136 -37 -29 -48 -25 -62 20
         -10 36 -20 44 -79 74 -37 19 -82 46 -101 60 -20 15 -48 26 -66 26 -54 0 -283
         -29 -353 -45 -100 -23 -100 -23 -70 -92 14 -32 33 -79 42 -105 23 -62 96 -129
         167 -151 99 -32 178 -39 239 -21 119 35 186 26 255 -32 l30 -26 -35 7 c-58 12
         -127 6 -187 -16 -40 -14 -91 -23 -163 -26 -97 -4 -109 -3 -153 20 -39 20 -49
         22 -54 11 -8 -20 22 -60 65 -88 33 -22 55 -26 197 -35 88 -6 176 -15 196 -21
         58 -16 102 -52 126 -100 53 -109 83 -295 56 -345 -6 -12 -37 -41 -67 -65 -125
         -99 -217 -231 -491 -700 -240 -413 -329 -544 -440 -656 -100 -100 -159 -135
         -241 -142 -67 -6 -112 9 -208 70 -158 101 -272 125 -335 72 -25 -21 -51 -74
         -51 -106 0 -5 13 -8 29 -8 74 0 202 -60 256 -120 l20 -22 -66 7 c-69 7 -162
         -6 -210 -30 -45 -24 -89 -78 -104 -129 -16 -54 -20 -162 -7 -170 5 -3 28 9 51
         26 147 107 311 179 364 159 15 -6 27 -13 27 -16 0 -3 -12 -34 -27 -68 -34 -80
         -63 -190 -63 -239 0 -51 26 -113 56 -133 13 -8 45 -19 69 -24 44 -8 45 -7 51
         18 25 113 87 241 148 306 54 58 247 186 319 213 79 30 166 29 232 -1 l50 -24
         0 49 c0 43 4 53 31 78 36 32 106 50 192 50 l57 0 -3 44 c-8 99 54 145 197 146
         75 0 83 2 78 18 -32 96 -47 166 -47 214 0 50 4 62 29 90 29 33 31 33 103 29
         171 -10 211 -7 256 19 45 26 86 80 143 190 l33 65 8 -79 c8 -73 7 -81 -17
         -121 -34 -60 -81 -104 -135 -129 -38 -18 -64 -21 -178 -21 -90 0 -132 -4 -132
         -11 0 -6 16 -42 35 -81 92 -185 293 -321 544 -369 l93 -18 -71 -12 c-120 -20
         -188 -74 -217 -171 -37 -124 3 -295 111 -472 33 -56 35 -63 35 -148 0 -49 -5
         -127 -11 -173 -19 -140 8 -188 100 -177 102 12 186 30 208 44 37 24 73 111 80
         192 l6 73 30 -6 c16 -3 33 -6 38 -6 17 0 8 -75 -14 -131 -32 -76 -84 -146
         -130 -173 l-38 -23 47 -18 47 -18 -7 -86 c-17 -207 -69 -427 -122 -518 -34
         -59 -73 -85 -189 -127 -337 -124 -440 -191 -505 -328 -51 -108 -85 -98 353
         -98 l382 0 0 93 c1 75 5 100 23 134 41 78 119 123 214 123 l44 0 -4 58 c-7 97
         31 139 142 157 l38 6 -20 22 c-30 32 -52 90 -45 118 3 13 36 53 73 90 59 56
         71 74 88 131 12 37 26 126 32 204 6 76 12 142 13 145 1 4 -15 33 -36 65 -27
         41 -55 69 -93 92 -191 116 -326 327 -379 592 -19 95 -30 345 -21 472 l8 97 40
         26 c22 15 41 25 43 23 1 -2 -2 -37 -7 -78 -13 -100 -3 -373 17 -484 55 -299
         175 -508 350 -607 45 -26 62 -43 95 -100 22 -37 56 -106 76 -151 65 -153 116
         -176 200 -88 27 28 63 60 82 73 51 34 74 87 74 172 0 52 -6 86 -21 121 l-22
         49 56 -55 c57 -57 95 -119 95 -159 0 -14 -22 -45 -56 -81 l-56 -59 46 -23 c45
         -22 46 -23 46 -69 0 -70 -28 -271 -51 -372 -26 -108 -79 -219 -122 -251 -18
         -13 -90 -45 -162 -71 -242 -87 -340 -139 -409 -215 -37 -41 -79 -116 -89 -161
         l-7 -26 143 -6 c78 -4 250 -7 382 -7 l240 0 0 83 c0 96 15 145 59 195 38 43
         94 69 167 78 l55 6 -4 62 c-4 55 -1 65 21 92 27 32 83 54 135 54 l31 0 -26 28
         c-36 38 -55 88 -48 123 4 18 27 47 61 76 92 79 108 129 133 408 5 55 17 147
         27 204 16 91 16 108 3 144 -14 40 -15 40 -114 72 -151 47 -259 112 -277 165
         -2 7 -19 7 -57 0 -30 -5 -83 -10 -120 -10 -78 0 -134 27 -164 77 -25 43 -44
         157 -57 344 -19 266 -34 315 -116 388 -44 39 -46 43 -31 58 15 15 20 14 71
         -20 57 -38 98 -83 115 -130 8 -20 16 -27 29 -23 31 9 195 35 320 51 68 8 127
         17 133 20 16 11 10 25 -44 90 -63 76 -101 149 -124 237 -13 50 -16 119 -17
         343 -1 307 7 361 60 424 52 62 78 41 256 -198 144 -194 280 -336 373 -391 186
         -110 364 -106 423 10 44 89 24 272 -53 471 -42 110 -119 260 -154 302 l-26 31
         -11 -130 c-18 -189 -49 -249 -114 -214 -56 30 -165 221 -304 535 -91 204 -150
         300 -242 392 -88 89 -172 133 -270 141 -211 17 -436 -163 -537 -431 -27 -71
         -31 -95 -31 -182 0 -97 1 -104 52 -235 66 -171 108 -314 132 -458 44 -255 14
         -426 -92 -516 -37 -32 -117 -66 -156 -66 -36 0 -88 38 -130 94 -42 58 -62 95
         -179 346 -46 96 -94 170 -112 170 -10 0 -30 -221 -23 -257 3 -18 32 -54 83
         -103 44 -42 79 -79 79 -82 0 -4 -16 -19 -36 -35 l-37 -28 -53 60 c-29 32 -66
         82 -81 109 -26 47 -28 59 -27 156 0 68 9 146 24 220 31 155 31 268 0 335 -31
         66 -30 129 3 233 94 290 69 661 -58 878 l-24 41 -73 -23 c-40 -13 -90 -26
         -112 -29 l-39 -6 44 -45 44 -45 -23 -42 c-12 -23 -62 -109 -110 -192 -67 -114
         -93 -151 -110 -153 -13 -2 -22 2 -22 10 0 7 44 89 98 182 l99 169 -64 63 c-34
         34 -63 68 -63 77 0 10 31 22 107 41 148 38 196 60 248 118 77 86 193 292 182
         322 -7 17 -12 18 -37 9z"/>
         <path d="M7104 10919 c-100 -29 -115 -146 -44 -362 36 -106 39 -182 10 -244
         -18 -40 -21 -43 -60 -43 -22 0 -58 -9 -80 -20 -44 -22 -90 -83 -90 -117 0 -43
         -148 -102 -607 -243 -406 -124 -501 -155 -620 -196 l-102 -36 56 -66 c78 -92
         173 -239 311 -485 100 -178 120 -207 137 -202 11 3 61 12 110 21 168 29 208
         73 224 247 10 106 26 142 67 158 32 12 96 -15 158 -66 l43 -35 6 49 c8 68 44
         146 80 177 26 22 38 25 76 21 25 -2 55 -8 67 -11 20 -7 21 -3 33 106 6 62 14
         125 18 141 4 21 2 27 -11 27 -12 0 -16 10 -16 45 0 38 6 51 36 85 l36 40 1033
         0 1032 0 28 -22 c50 -39 77 -148 37 -148 -17 0 -17 -5 -5 -82 7 -46 15 -109
         18 -141 6 -50 9 -57 23 -52 9 4 37 9 62 12 84 8 138 -54 162 -186 l12 -61 25
         23 c70 64 135 92 176 77 35 -13 54 -58 61 -142 8 -98 21 -147 49 -184 31 -41
         72 -59 175 -78 47 -8 94 -18 106 -21 19 -6 35 17 143 207 145 252 252 415 321
         491 l51 56 -198 65 c-109 35 -338 107 -508 160 -298 91 -481 152 -525 176 -14
         8 -20 21 -20 46 0 48 -36 110 -80 137 -27 17 -56 23 -125 27 l-90 5 -20 40
         c-30 61 -26 140 15 255 29 81 34 109 34 187 1 78 -2 96 -20 120 -24 32 -87 57
         -122 48 -22 -5 -23 -9 -17 -54 8 -61 -8 -148 -40 -220 -20 -43 -28 -52 -35
         -41 -5 8 -10 27 -10 42 0 15 -10 58 -22 95 -37 114 -122 183 -223 183 -29 0
         -145 -26 -153 -35 -2 -2 41 -47 97 -101 117 -112 181 -200 181 -250 0 -18 -3
         -35 -7 -37 -5 -3 -46 2 -93 10 -95 16 -211 11 -263 -11 -18 -7 -45 -28 -60
         -46 -24 -28 -28 -40 -25 -88 l3 -56 70 -3 c85 -4 193 -22 201 -34 3 -5 -174
         -9 -416 -9 -234 0 -419 4 -416 9 8 13 112 31 194 33 67 2 73 4 79 26 3 13 3
         39 0 59 -15 91 -82 128 -232 127 -55 0 -124 -6 -154 -12 -63 -14 -75 -6 -65
         43 10 52 73 136 178 238 111 108 111 108 23 127 -75 16 -119 12 -175 -16 -79
         -39 -127 -125 -148 -260 l-7 -48 -18 23 c-34 42 -62 154 -57 231 4 84 -3 91
         -78 69z m1967 -750 c30 -16 48 -66 38 -103 -15 -55 -40 -66 -146 -66 l-94 0
         20 26 c42 54 15 137 -44 137 -60 0 -88 -92 -43 -140 l21 -23 -396 0 -396 0 24
         25 c44 43 30 114 -25 134 -96 33 -154 -99 -65 -147 15 -9 -86 -11 -385 -12
         -362 0 -402 2 -383 15 45 32 37 121 -13 143 -56 26 -110 -45 -84 -109 7 -16
         20 -34 29 -39 11 -6 -10 -9 -67 -10 -79 0 -85 2 -113 29 -37 37 -38 79 -3 120
         l26 31 1040 0 c724 0 1045 -3 1059 -11z"/>
         <path d="M6983 9845 c-17 -7 -36 -22 -42 -33 -9 -17 -7 -21 12 -26 12 -3 34
         -6 50 -6 32 0 31 4 11 -51 -11 -32 -26 -205 -54 -614 -21 -313 -41 -603 -45
         -643 l-6 -72 55 6 c156 19 256 -83 256 -259 l0 -59 -40 4 c-22 2 -40 3 -40 2
         0 -1 18 -13 40 -28 57 -38 96 -96 117 -177 l17 -69 212 0 212 0 -9 34 c-6 21
         -8 421 -7 1020 l3 986 -355 0 c-279 -1 -362 -4 -387 -15z"/>
         <path d="M8228 9823 c9 -49 9 -1916 0 -1965 l-7 -38 213 0 214 0 6 43 c13 88
         75 179 150 222 14 8 8 10 -26 10 l-43 0 3 60 c4 88 20 139 58 184 47 54 106
         76 188 68 l63 -6 -4 42 c-2 23 -22 308 -44 632 -25 375 -45 609 -54 642 -19
         66 -20 63 18 63 17 0 39 5 47 10 13 8 11 14 -13 37 l-27 28 -375 3 -374 3 7
         -38z"/>
         <path d="M7920 9683 c-39 -35 -45 -88 -14 -130 57 -76 174 -38 174 56 0 54
         -32 90 -86 98 -35 4 -46 1 -74 -24z"/>
         <path d="M7921 8903 c-44 -37 -43 -126 1 -158 13 -8 41 -15 64 -15 35 0 47 5
         68 31 17 19 26 43 26 64 0 21 -9 45 -26 64 -21 26 -33 31 -69 31 -26 0 -51 -7
         -64 -17z"/>
         <path d="M7920 8113 c-39 -35 -45 -88 -14 -130 57 -76 174 -38 174 56 0 54
         -32 90 -86 98 -35 4 -46 1 -74 -24z"/>
         <path d="M2135 5265 l-160 -154 6000 0 6000 -1 -160 155 -160 154 -5680 0
         -5680 1 -160 -155z"/>
         <path d="M8963 4675 c-180 -56 -269 -211 -218 -382 30 -102 106 -172 314 -289
         178 -101 250 -183 251 -287 0 -86 -44 -157 -125 -200 -32 -18 -57 -22 -130
         -22 -79 0 -97 4 -142 28 -69 36 -118 80 -149 133 -14 24 -29 44 -32 44 -7 0
         -3 -262 3 -268 2 -2 12 5 23 16 19 19 20 19 128 -9 210 -55 362 -27 484 87 69
         65 93 126 88 228 -6 152 -69 231 -289 360 -159 95 -228 144 -266 194 -25 33
         -28 46 -28 108 0 61 4 75 27 106 43 56 108 83 198 82 61 0 85 -5 127 -27 70
         -36 115 -77 144 -132 13 -25 27 -45 31 -45 16 0 1 250 -15 266 -4 4 -13 -1
         -21 -11 -14 -20 -18 -20 -145 15 -85 23 -195 25 -258 5z"/>
         <path d="M11711 4094 c-134 -322 -255 -599 -268 -615 -14 -16 -31 -29 -39 -29
         -8 0 -14 -4 -14 -10 0 -6 48 -10 125 -10 77 0 125 4 125 10 0 6 -9 10 -19 10
         -67 0 -66 28 7 210 l58 145 278 0 278 0 64 -158 c53 -128 63 -161 54 -177 -6
         -11 -21 -20 -35 -20 -13 0 -27 -4 -30 -10 -4 -7 52 -10 159 -10 91 0 166 4
         166 8 0 4 -14 13 -30 19 -36 14 -18 -26 -311 680 l-224 543 -50 0 -51 0 -243
         -586z m383 92 c64 -159 115 -291 113 -293 -2 -2 -112 -2 -244 -1 l-240 3 120
         298 c66 164 123 294 127 290 4 -4 59 -138 124 -297z"/>
         <path d="M1993 4658 c26 -7 41 -18 48 -35 5 -13 9 -201 9 -422 0 -229 4 -421
         10 -452 15 -77 61 -170 109 -218 154 -154 505 -163 668 -16 47 42 93 112 116
         178 7 21 13 187 16 473 6 417 7 443 25 463 11 12 33 25 50 30 22 7 -13 9 -119
         10 -100 0 -145 -3 -135 -9 8 -5 23 -10 32 -10 9 0 26 -12 38 -27 21 -27 21
         -31 18 -453 -4 -479 -4 -479 -80 -565 -63 -72 -124 -98 -239 -103 -132 -6
         -195 13 -259 77 -30 30 -56 69 -71 107 -24 58 -24 63 -27 491 -2 285 0 439 7
         452 6 10 28 23 48 29 30 8 0 10 -132 10 -133 0 -162 -2 -132 -10z"/>
         <path d="M3340 4656 c72 -26 70 -7 70 -618 0 -535 0 -548 -20 -568 -11 -11
         -33 -20 -50 -20 -16 0 -30 -4 -30 -10 0 -6 55 -10 145 -10 90 0 145 4 145 10
         0 6 -13 10 -28 10 -16 0 -36 8 -46 18 -15 17 -16 64 -14 509 l3 491 365 -524
         365 -523 48 -1 47 0 0 598 c0 568 1 600 18 615 10 10 25 17 33 17 8 0 21 5 29
         10 10 6 -35 9 -135 9 -133 -1 -146 -2 -111 -13 69 -21 66 -2 64 -521 l-3 -468
         -79 119 c-44 65 -161 236 -261 379 -100 143 -218 315 -263 383 l-82 122 -123
         -1 c-110 0 -119 -2 -87 -13z"/>
         <path d="M4718 4657 c23 -7 47 -19 52 -27 14 -21 13 -1135 0 -1161 -7 -13 -21
         -19 -45 -19 -18 0 -37 -4 -40 -10 -4 -7 55 -10 169 -10 103 0 176 4 176 9 0 6
         -17 11 -37 13 -28 2 -41 9 -50 28 -18 36 -18 1104 0 1140 8 15 27 29 52 36 35
         11 15 12 -140 12 -154 0 -174 -2 -137 -11z"/>
         <path d="M5240 4665 c0 -3 15 -11 33 -18 22 -10 40 -29 55 -58 13 -24 125
         -296 251 -604 l228 -560 39 0 38 0 223 575 c122 316 229 589 238 606 9 17 31
         38 48 47 31 15 27 16 -100 16 -83 1 -133 -3 -133 -9 0 -5 11 -10 24 -10 32 0
         50 -24 43 -59 -6 -27 -342 -915 -355 -935 -8 -14 -383 935 -380 963 2 18 13
         28 38 37 31 11 15 13 -127 13 -90 1 -163 -1 -163 -4z"/>
         <path d="M6510 4656 c19 -7 41 -24 47 -37 18 -35 18 -1103 0 -1139 -9 -17 -22
         -26 -45 -28 -17 -2 -32 -8 -32 -13 0 -6 159 -8 417 -7 l417 3 22 105 c12 58
         20 107 17 110 -2 3 -13 -6 -23 -20 -88 -116 -77 -113 -346 -118 -155 -3 -227
         -1 -242 7 -22 12 -22 16 -22 261 l0 250 224 0 225 0 20 -26 c12 -15 21 -35 21
         -45 0 -11 5 -19 10 -19 6 0 10 52 10 135 0 83 -4 135 -10 135 -5 0 -10 -9 -10
         -20 0 -12 -11 -32 -25 -45 l-24 -25 -221 0 -220 0 0 230 0 230 24 6 c13 3 123
         4 243 2 243 -3 268 -9 280 -68 3 -17 12 -30 19 -30 16 0 18 41 8 128 l-7 52
         -406 -1 c-339 0 -400 -3 -371 -13z"/>
         <path d="M7545 4656 c28 -9 41 -20 46 -37 4 -13 7 -269 8 -569 1 -599 1 -592
         -57 -598 -17 -2 -32 -7 -32 -13 0 -5 69 -9 166 -9 107 0 163 3 159 10 -3 6
         -19 10 -35 10 -19 0 -33 7 -40 19 -6 12 -10 120 -10 280 l0 261 72 0 72 0 106
         -107 c113 -116 205 -244 276 -385 l44 -88 100 0 c55 0 100 3 100 6 0 3 -11 15
         -24 25 -14 11 -57 75 -96 144 -80 140 -209 307 -299 386 l-61 53 52 13 c118
         30 199 88 238 168 33 68 30 188 -5 260 -44 90 -122 145 -244 171 -90 19 -598
         19 -536 0z m450 -77 c146 -27 216 -112 202 -245 -15 -150 -120 -223 -344 -239
         l-103 -7 0 235 c0 246 1 249 45 260 37 9 141 7 200 -4z"/>
         <path d="M9698 4657 c23 -7 47 -19 52 -27 14 -21 13 -1135 0 -1161 -7 -13 -21
         -19 -45 -19 -18 0 -37 -4 -40 -10 -4 -7 55 -10 169 -10 111 0 176 4 176 10 0
         6 -15 10 -32 10 -67 0 -63 -38 -66 583 -1 310 1 575 6 588 7 17 22 27 53 35
         38 10 20 12 -136 12 -154 0 -174 -2 -137 -11z"/>
         <path d="M10290 4659 c19 -6 41 -15 48 -21 17 -15 18 -1158 0 -1176 -7 -7 -24
         -12 -39 -12 -15 0 -31 -4 -34 -10 -8 -13 424 -13 531 0 183 23 292 70 401 174
         80 75 120 145 150 256 23 88 22 281 -1 370 -43 159 -150 291 -288 354 -134 62
         -181 68 -508 72 -217 2 -286 0 -260 -7z m552 -94 c239 -62 368 -242 368 -515
         0 -278 -133 -456 -386 -516 -89 -21 -274 -24 -297 -5 -15 12 -17 60 -17 522 0
         375 3 510 12 515 44 27 212 26 320 -1z"/>
         <path d="M12792 4658 c28 -8 40 -19 48 -41 16 -46 13 -1105 -3 -1137 -9 -17
         -22 -26 -45 -28 -17 -2 -32 -7 -32 -13 0 -5 95 -9 233 -9 348 0 479 26 622
         122 115 76 180 166 221 303 23 75 26 292 5 375 -51 208 -196 351 -418 412 -70
         19 -109 21 -373 24 -226 2 -286 0 -258 -8z m541 -94 c189 -49 318 -180 356
         -362 16 -77 14 -247 -4 -317 -61 -238 -242 -363 -535 -368 -70 -1 -112 2 -127
         11 l-23 13 0 509 c0 376 3 511 12 516 44 27 212 26 321 -2z"/>
         <path d="M4276 3205 c-72 -20 -164 -69 -218 -115 -67 -58 -142 -176 -174 -273
         -24 -73 -27 -98 -28 -227 -1 -164 11 -226 69 -348 66 -140 204 -251 356 -287
         81 -19 216 -19 297 0 217 51 372 231 418 485 65 360 -115 685 -422 764 -75 19
         -229 20 -298 1z m306 -97 c79 -36 151 -111 193 -201 55 -115 69 -184 68 -332
         0 -144 -20 -240 -68 -336 -37 -72 -117 -154 -184 -186 -51 -25 -66 -28 -166
         -28 -102 0 -114 2 -164 28 -166 88 -261 302 -248 562 3 61 13 137 22 170 48
         181 159 310 299 346 63 16 187 5 248 -23z"/>
         <path d="M11440 3204 c-165 -35 -311 -149 -388 -302 -59 -119 -76 -205 -69
         -366 7 -199 53 -313 171 -432 199 -198 593 -222 820 -49 41 31 36 58 -6 31
         -70 -46 -276 -73 -419 -55 -251 31 -409 243 -409 549 0 304 154 515 402 551
         168 25 303 -31 394 -163 l29 -42 7 55 c8 74 10 219 1 219 -3 0 -15 -8 -25 -17
         -17 -15 -25 -16 -76 -4 -148 34 -193 40 -277 40 -49 0 -119 -7 -155 -15z"/>
         <path d="M5376 2658 c-126 -304 -240 -574 -252 -600 -13 -25 -38 -58 -56 -72
         l-33 -26 130 1 c117 0 126 2 95 13 -26 9 -36 19 -38 39 -2 14 22 90 54 171
         l57 146 281 0 281 0 64 -160 c70 -174 70 -174 8 -197 -27 -10 -4 -12 138 -12
         136 0 166 3 151 12 -11 7 -29 21 -41 32 -11 11 -131 287 -265 612 l-245 593
         -50 0 -50 0 -229 -552z m364 67 c62 -154 115 -286 117 -292 4 -10 -48 -13
         -240 -13 l-246 0 122 300 c66 165 124 297 127 293 4 -5 57 -134 120 -288z"/>
         <path d="M12380 2624 c-134 -322 -254 -599 -268 -615 -13 -16 -30 -29 -37 -29
         -8 0 -17 -5 -20 -10 -4 -6 41 -10 127 -9 119 0 129 2 98 13 -52 19 -50 45 16
         212 l58 144 280 -2 281 -3 62 -154 c43 -106 59 -159 53 -170 -4 -8 -23 -21
         -42 -27 -28 -11 -8 -13 137 -13 136 0 166 3 151 12 -11 7 -29 21 -41 32 -11
         11 -112 241 -224 510 -112 270 -222 535 -245 590 l-42 100 -50 3 -50 3 -244
         -587z m385 84 c62 -155 112 -284 111 -285 -2 -2 -111 -2 -244 -1 l-240 3 121
         298 c86 215 123 294 129 283 5 -9 60 -143 123 -298z"/>
         <path d="M14979 2623 c-134 -323 -255 -600 -267 -615 -13 -15 -30 -28 -37 -28
         -8 0 -17 -5 -20 -10 -4 -6 41 -10 127 -9 119 0 129 2 98 13 -53 19 -51 49 16
         215 l56 141 281 -2 280 -3 58 -140 c68 -163 71 -192 19 -211 -31 -11 -14 -13
         134 -13 93 -1 167 1 165 4 -3 2 -20 15 -38 27 -31 21 -55 75 -281 618 l-246
         595 -51 3 -50 3 -244 -588z m365 134 c53 -130 105 -260 116 -287 l20 -50 -245
         0 -245 0 21 53 c123 312 223 547 230 535 4 -7 50 -120 103 -251z"/>
         <path d="M0 3190 c0 -5 18 -10 40 -10 29 0 42 -5 50 -19 6 -13 10 -216 10
         -589 0 -461 -3 -572 -13 -581 -8 -6 -31 -15 -53 -20 -28 -6 10 -9 141 -9 110
         0 167 3 146 8 -70 17 -66 -22 -66 609 0 625 -2 601 61 601 19 0 34 5 34 10 0
         6 -65 10 -175 10 -110 0 -175 -4 -175 -10z"/>
         <path d="M600 3190 c0 -5 18 -10 40 -10 29 0 42 -5 50 -19 6 -13 10 -216 10
         -589 0 -461 -3 -572 -13 -581 -8 -6 -31 -15 -53 -20 -27 -6 44 -9 234 -10 213
         -1 290 2 350 15 192 39 302 155 302 318 0 143 -77 242 -228 292 -65 22 -66 23
         -39 33 15 6 38 13 50 17 35 9 100 57 124 93 29 43 47 132 39 195 -20 150 -127
         238 -320 265 -100 14 -546 15 -546 1z m565 -96 c64 -22 130 -88 145 -146 14
         -49 7 -137 -14 -176 -20 -39 -65 -78 -111 -98 -30 -13 -77 -19 -182 -22 l-143
         -4 0 226 0 225 33 11 c45 13 213 4 272 -16z m20 -564 c88 -33 149 -97 165
         -173 28 -138 -33 -244 -169 -292 -53 -18 -203 -31 -255 -21 -75 14 -76 16 -76
         282 l0 237 138 -5 c109 -5 149 -10 197 -28z"/>
         <path d="M1740 3191 c0 -6 15 -11 32 -13 58 -6 58 1 57 -598 -1 -300 -4 -556
         -8 -569 -4 -17 -18 -28 -46 -37 -33 -10 34 -12 380 -11 l419 2 22 103 c24 112
         16 131 -27 65 -31 -47 -65 -72 -115 -83 -55 -13 -431 -13 -455 0 -18 10 -19
         24 -19 260 l0 250 220 0 221 0 24 -25 c14 -13 25 -33 25 -45 0 -11 5 -20 10
         -20 6 0 10 52 10 135 0 83 -4 135 -10 135 -5 0 -10 -8 -10 -19 0 -10 -9 -30
         -21 -45 l-20 -26 -225 0 -224 0 0 230 0 230 243 0 c267 0 285 -4 303 -58 11
         -36 27 -43 33 -16 1 9 0 50 -4 91 l-7 73 -404 0 c-244 0 -404 -4 -404 -9z"/>
         <path d="M2770 3191 c0 -6 15 -11 32 -13 58 -6 58 1 57 -598 -1 -300 -4 -556
         -8 -570 -5 -18 -18 -28 -46 -37 -35 -10 -17 -11 130 -11 101 0 157 3 138 8
         -65 15 -63 6 -63 301 l0 269 70 0 69 0 94 -92 c51 -51 119 -127 149 -168 60
         -81 151 -234 170 -287 l12 -33 104 0 104 0 -29 29 c-15 15 -59 83 -98 150 -78
         137 -210 308 -291 377 -30 26 -54 50 -54 54 0 5 18 11 39 15 100 17 213 98
         246 177 20 50 20 171 -2 233 -35 103 -140 173 -291 195 -87 13 -532 13 -532 1z
         m545 -98 c62 -21 120 -79 136 -135 26 -97 -10 -205 -89 -265 -57 -43 -125 -62
         -250 -70 l-102 -6 2 239 3 239 35 13 c45 16 200 8 265 -15z"/>
         <path d="M6460 3190 c0 -5 15 -10 34 -10 68 0 66 19 66 -592 0 -315 -4 -557
         -9 -571 -7 -17 -24 -30 -53 -40 -42 -15 -40 -15 107 -15 126 0 145 1 118 11
         -72 27 -68 -9 -70 555 -2 393 0 503 9 490 7 -9 114 -250 238 -535 224 -514
         226 -518 257 -521 l31 -3 233 546 234 546 3 -516 c1 -326 -1 -523 -8 -534 -5
         -11 -27 -23 -47 -29 -30 -8 0 -10 132 -10 133 0 162 2 132 10 -26 7 -41 18
         -48 35 -5 14 -9 257 -9 571 0 601 0 594 58 600 17 2 32 7 32 13 0 5 -59 9
         -137 9 l-138 0 -215 -505 c-118 -278 -217 -505 -220 -505 -4 0 -105 226 -226
         503 l-221 502 -141 3 c-92 2 -142 -1 -142 -8z"/>
         <path d="M8160 3190 c0 -5 13 -10 30 -10 19 0 33 -7 40 -19 13 -25 14 -1140 0
         -1161 -5 -8 -24 -20 -42 -27 -27 -9 48 -12 384 -12 l417 -1 11 58 c6 31 16 73
         21 92 12 47 11 60 -3 60 -7 0 -22 -17 -33 -37 -26 -47 -62 -73 -116 -84 -24
         -4 -135 -8 -246 -9 -170 0 -204 2 -217 16 -14 13 -16 51 -16 260 l0 244 225 0
         c211 0 226 -1 245 -20 11 -11 22 -31 26 -45 15 -59 24 -16 24 110 0 128 -10
         172 -25 105 -12 -57 -27 -60 -272 -60 l-223 0 2 228 3 227 246 3 c234 2 247 1
         272 -18 14 -11 28 -34 32 -50 13 -59 25 -28 25 65 l0 95 -405 0 c-263 0 -405
         -3 -405 -10z"/>
         <path d="M9190 3190 c0 -5 13 -10 28 -10 15 0 33 -5 40 -12 18 -18 17 -1161 0
         -1175 -7 -6 -26 -15 -43 -21 -23 -8 7 -10 135 -10 143 0 160 1 125 11 -28 9
         -41 19 -46 37 -4 14 -7 139 -8 278 l-1 252 74 0 73 0 112 -116 c117 -120 209
         -249 277 -386 l38 -78 98 0 c54 0 98 2 98 4 0 2 -12 17 -27 33 -16 17 -57 81
         -93 144 -75 132 -188 277 -283 366 -37 34 -67 64 -67 66 0 3 15 7 33 10 57 9
         141 46 180 78 58 48 89 109 95 188 12 179 -92 302 -287 337 -92 16 -551 20
         -551 4z m463 -80 c77 -11 130 -35 169 -77 37 -39 48 -73 48 -152 0 -58 -4 -74
         -33 -121 -27 -46 -43 -60 -97 -87 -71 -36 -174 -56 -261 -51 l-54 3 -3 224
         c-3 272 -5 266 118 269 25 1 76 -3 113 -8z"/>
         <path d="M10420 3190 c0 -5 15 -10 33 -10 66 0 62 38 65 -583 1 -349 -1 -574
         -7 -590 -8 -19 -21 -28 -53 -35 -33 -8 -1 -10 137 -10 137 0 170 2 138 10 -25
         5 -47 17 -53 28 -7 13 -10 213 -8 590 3 628 -1 590 66 590 17 0 32 5 32 10 0
         6 -65 10 -175 10 -110 0 -175 -4 -175 -10z"/>
         <path d="M13420 3191 c0 -6 14 -11 31 -13 24 -2 36 -11 50 -38 18 -33 19 -67
         19 -575 0 -599 3 -569 -66 -591 -34 -10 -21 -12 111 -12 146 0 149 0 107 15
         -28 10 -44 22 -47 36 -3 12 -4 238 -3 502 l3 481 365 -523 365 -523 42 0 42 0
         3 594 c3 568 4 595 22 615 11 12 31 21 48 21 15 0 28 5 28 10 0 6 -55 10 -145
         10 -90 0 -145 -4 -145 -10 0 -5 13 -10 28 -10 16 0 37 -6 48 -14 18 -14 19
         -32 22 -492 1 -274 -1 -474 -6 -469 -5 6 -53 75 -107 155 -55 80 -172 250
         -261 378 -90 128 -198 284 -240 347 l-78 115 -118 0 c-67 0 -118 -4 -118 -9z"/>
         
         </g></svg>
